<?xml version="1.0" encoding="UTF-8"?>
<svg width="863px" height="980px" viewBox="0 0 863 980" version="1.1" xmlns="http://www.w3.org/2000/svg" xmlns:xlink="http://www.w3.org/1999/xlink">
    <title>Shape</title>
    <g id="Page-1" stroke="none" stroke-width="1" fill="none" fill-rule="evenodd" fill-opacity="0.15">
        <g id="5f0f391376e54433290cf2330d5a3e2e" transform="translate(0.000000, 0.000000)" fill="#F5BB40" fill-rule="nonzero">
            <path d="M75.8,980 L194.7,980 L194.7,726.3 L75.8,726.3 L75.8,980 Z M274,980 L392.9,980 L392.9,607.4 L274,607.4 L274,980 Z M495.9,980 L614.8,980 L614.8,512.2 L495.9,512.2 L495.9,980 Z M710,980 L828.9,980 L828.9,377.5 L710,377.5 L710,980 Z M815.7,266.5 L862.6,0 L596.1,59.8 L678.3,137.2 L446.6,378.1 L331.9,275.1 L0,615.5 L48.5,662.7 L48.4,662.6 L335,368.7 L450.1,471.9 L727.6,183.5 L815.7,266.5 Z" id="Shape"></path>
        </g>
    </g>
</svg>