<?xml version="1.0" encoding="UTF-8"?>
<svg width="75px" height="75px" viewBox="0 0 75 75" version="1.1" xmlns="http://www.w3.org/2000/svg" xmlns:xlink="http://www.w3.org/1999/xlink">
    <title>quote</title>
    <g id="Page-1" stroke="none" stroke-width="1" fill="none" fill-rule="evenodd">
        <g id="quote">
            <rect id="Rectangle" fill="#27303B" x="0" y="0" width="75" height="75"></rect>
            <g id="iconmonstr-quote-8" transform="translate(17.000000, 22.000000)" fill="#F5BB40" fill-rule="nonzero">
                <path d="M8.18,23.5616667 C10.6866667,19.7116667 11.145,16.145 10.9816667,14.0816667 C0.761666667,14.25 1.48833333,3.33333333 8.665,3.33333333 C11.715,3.33333333 15,5.56333333 15,10.4583333 C15,14.9983333 12.6466667,20.2 8.18,23.5616667 Z M29.8466667,23.5616667 C32.3533333,19.7116667 32.8116667,16.145 32.6483333,14.0816667 C22.4283333,14.25 23.155,3.33333333 30.3316667,3.33333333 C33.3816667,3.33333333 36.6666667,5.56333333 36.6666667,10.4583333 C36.6666667,14.9983333 34.3133333,20.2 29.8466667,23.5616667 Z M1.66666667,30 C11.8466667,27.99 18.3333333,19.0266667 18.3333333,10.4583333 C18.3333333,3.84166667 13.69,0 8.665,0 C4.30666667,0 0,2.995 0,8.29833333 C0,12.6333333 3.175,16.2266667 7.32666667,16.88 C6.965,20.22 3.71833333,25.065 0.0266666667,26.4566667 L1.66666667,30 L1.66666667,30 Z M23.3333333,30 C33.5133333,27.99 40,19.0266667 40,10.4583333 C40,3.84166667 35.3566667,0 30.3316667,0 C25.9733333,0 21.6666667,2.995 21.6666667,8.29833333 C21.6666667,12.6333333 24.8416667,16.2266667 28.9933333,16.88 C28.6316667,20.22 25.385,25.065 21.6933333,26.4566667 L23.3333333,30 L23.3333333,30 Z" id="Shape"></path>
            </g>
        </g>
    </g>
</svg>